<?xml version="1.0" encoding="UTF-8"?>
<svg width="32" height="32" viewBox="0 0 32 32" xmlns="http://www.w3.org/2000/svg">
  <!-- SETUP/CONFIGURE - Settings Panel with Gear - Rich Two-Tone Design -->

  <!-- Layer 1: White settings panel structure -->
  <rect x="4" y="3" width="24" height="26" rx="2" fill="none" stroke="#e2e1e1" stroke-width="1.5"/>
  <!-- Title bar -->
  <line x1="4" y1="8" x2="28" y2="8" stroke="#e2e1e1" stroke-width="1.5"/>
  <!-- Panel sections -->
  <line x1="6" y1="12" x2="26" y2="12" stroke="#e2e1e1" stroke-width="0.8" opacity="0.5"/>
  <line x1="6" y1="17" x2="26" y2="17" stroke="#e2e1e1" stroke-width="0.8" opacity="0.5"/>
  <line x1="6" y1="22" x2="26" y2="22" stroke="#e2e1e1" stroke-width="0.8" opacity="0.5"/>

  <!-- Layer 2: Blue gear (centered, overlaying panel) -->
  <!-- Gear outer shape with 8 teeth -->
  <path d="M16 10 L17 11 L19 11 L20 10 L21 11 L21 13 L22 14 L21 15 L21 17 L20 18 L19 18 L17 18 L16 18 L15 18 L13 18 L12 18 L11 17 L11 15 L10 14 L11 13 L11 11 L12 10 L13 11 L15 11 Z"
        fill="#4f90cd" opacity="0.3"/>
  <circle cx="16" cy="14" r="5.5" fill="none" stroke="#4f90cd" stroke-width="2"/>
  <!-- Gear teeth -->
  <rect x="15.5" y="8" width="1" height="2" fill="#4f90cd"/>
  <rect x="15.5" y="18" width="1" height="2" fill="#4f90cd"/>
  <rect x="21" y="13.5" width="2" height="1" fill="#4f90cd"/>
  <rect x="9" y="13.5" width="2" height="1" fill="#4f90cd"/>
  <rect x="19.5" y="9.8" width="1.2" height="1.5" fill="#4f90cd" transform="rotate(45 20 10.5)"/>
  <rect x="11.3" y="9.8" width="1.2" height="1.5" fill="#4f90cd" transform="rotate(-45 12 10.5)"/>
  <rect x="19.5" y="16.7" width="1.2" height="1.5" fill="#4f90cd" transform="rotate(-45 20 17.5)"/>
  <rect x="11.3" y="16.7" width="1.2" height="1.5" fill="#4f90cd" transform="rotate(45 12 17.5)"/>
  <!-- Gear center -->
  <circle cx="16" cy="14" r="2.5" fill="none" stroke="#4f90cd" stroke-width="1.5"/>
  <circle cx="16" cy="14" r="1" fill="#4f90cd"/>

  <!-- Layer 3: Details - Sliders on panel -->
  <!-- Slider 1 -->
  <line x1="7" y1="24" x2="15" y2="24" stroke="#e2e1e1" stroke-width="1"/>
  <circle cx="12" cy="24" r="1.5" fill="#4f90cd"/>

  <!-- Slider 2 -->
  <line x1="17" y1="24" x2="25" y2="24" stroke="#e2e1e1" stroke-width="1"/>
  <circle cx="20" cy="24" r="1.5" fill="#4f90cd"/>

  <!-- Slider 3 -->
  <line x1="7" y1="26.5" x2="15" y2="26.5" stroke="#e2e1e1" stroke-width="1"/>
  <circle cx="9" cy="26.5" r="1.5" fill="#4f90cd"/>
</svg>
