<?xml version="1.0" encoding="UTF-8"?>
<svg width="32" height="32" viewBox="0 0 32 32" xmlns="http://www.w3.org/2000/svg">
  <!-- NEW - Create Document - Rich Two-Tone Design -->

  <!-- Layer 1: White document structure -->
  <!-- Document outline with folded corner -->
  <path d="M 7 4 L 7 28 L 25 28 L 25 10 L 19 4 Z" fill="none" stroke="#e2e1e1" stroke-width="1.5"/>
  <!-- Folded corner detail -->
  <path d="M 19 4 L 19 10 L 25 10" fill="none" stroke="#e2e1e1" stroke-width="1.5"/>
  <path d="M 19 4 L 19 10 L 25 10 Z" fill="#4f90cd" opacity="0.1"/>

  <!-- Document lines (partial) -->
  <line x1="10" y1="14" x2="16" y2="14" stroke="#e2e1e1" stroke-width="1" opacity="0.5"/>
  <line x1="10" y1="17" x2="14" y2="17" stroke="#e2e1e1" stroke-width="1" opacity="0.4"/>
  <line x1="10" y1="23" x2="22" y2="23" stroke="#e2e1e1" stroke-width="1" opacity="0.5"/>
  <line x1="10" y1="26" x2="20" y2="26" stroke="#e2e1e1" stroke-width="1" opacity="0.4"/>

  <!-- Layer 2: Blue plus symbol (prominent) -->
  <!-- Circle background for plus -->
  <circle cx="19" cy="19" r="7" fill="#4f90cd" opacity="0.15"/>
  <circle cx="19" cy="19" r="7" fill="none" stroke="#4f90cd" stroke-width="2"/>

  <!-- Plus symbol -->
  <line x1="19" y1="14" x2="19" y2="24" stroke="#4f90cd" stroke-width="2.5" stroke-linecap="round"/>
  <line x1="14" y1="19" x2="24" y2="19" stroke="#4f90cd" stroke-width="2.5" stroke-linecap="round"/>

  <!-- Layer 3: Details -->
  <!-- Center dot of plus -->
  <circle cx="19" cy="19" r="1.5" fill="#4f90cd"/>

  <!-- Corner accent marks on document -->
  <line x1="8" y1="6" x2="10" y2="4" stroke="#e2e1e1" stroke-width="0.8" opacity="0.4"/>
  <line x1="8" y1="26" x2="10" y2="28" stroke="#e2e1e1" stroke-width="0.8" opacity="0.4"/>

  <!-- Sparkle effect around plus (new/creation indication) -->
  <circle cx="13" cy="13" r="0.8" fill="#4f90cd" opacity="0.6"/>
  <circle cx="25" cy="13" r="0.6" fill="#4f90cd" opacity="0.5"/>
  <circle cx="25" cy="25" r="0.8" fill="#4f90cd" opacity="0.6"/>
  <line x1="12" y1="13" x2="13" y2="12" stroke="#4f90cd" stroke-width="0.5" opacity="0.5"/>
  <line x1="25" y1="12" x2="26" y2="13" stroke="#4f90cd" stroke-width="0.5" opacity="0.5"/>
</svg>