<?xml version="1.0" encoding="UTF-8"?>
<svg width="32" height="32" viewBox="0 0 32 32" xmlns="http://www.w3.org/2000/svg">
  <!-- REFRESH - Rotation with Motion - Rich Two-Tone Design -->

  <!-- Layer 1: White rotation path -->
  <!-- Circular path with gap -->
  <path d="M 16 5 A 11 11 0 1 1 8 10" fill="none" stroke="#e2e1e1" stroke-width="2" stroke-linecap="round"/>
  <!-- Path indicator dots -->
  <circle cx="16" cy="5" r="1" fill="#e2e1e1" opacity="0.5"/>
  <circle cx="25" cy="11" r="1" fill="#e2e1e1" opacity="0.5"/>
  <circle cx="27" cy="20" r="1" fill="#e2e1e1" opacity="0.5"/>
  <circle cx="20" cy="27" r="1" fill="#e2e1e1" opacity="0.5"/>

  <!-- Layer 2: Blue active arrow with motion -->
  <!-- Active rotation arrow (right side, clockwise) -->
  <path d="M 27 16 A 11 11 0 0 1 16 27" fill="none" stroke="#4f90cd" stroke-width="2.5" stroke-linecap="round"/>

  <!-- Large arrowhead -->
  <path d="M 16 27 L 13 29 L 15 24" fill="#4f90cd" stroke="none"/>

  <!-- Motion blur echoes behind arrow -->
  <path d="M 25 22 A 11 11 0 0 1 19 26" fill="none" stroke="#4f90cd" stroke-width="2" stroke-linecap="round" opacity="0.3"/>
  <path d="M 26.5 18 A 11 11 0 0 1 23 24" fill="none" stroke="#4f90cd" stroke-width="1.5" stroke-linecap="round" opacity="0.2"/>

  <!-- Layer 3: Details -->
  <!-- Central hub -->
  <circle cx="16" cy="16" r="4" fill="none" stroke="#e2e1e1" stroke-width="1.5"/>
  <circle cx="16" cy="16" r="2" fill="#4f90cd"/>

  <!-- Inner rotation ring -->
  <circle cx="16" cy="16" r="6" fill="none" stroke="#e2e1e1" stroke-width="0.8" opacity="0.4"/>

  <!-- Directional tick marks on path -->
  <line x1="16" y1="4" x2="16" y2="6" stroke="#e2e1e1" stroke-width="1" opacity="0.6"/>
  <line x1="27" y1="16" x2="25" y2="16" stroke="#e2e1e1" stroke-width="1" opacity="0.6"/>
  <line x1="16" y1="28" x2="16" y2="26" stroke="#e2e1e1" stroke-width="1" opacity="0.6"/>

  <!-- Motion lines (curved) behind blue arrow -->
  <path d="M 24 20 Q 25 23 20 25" fill="none" stroke="#4f90cd" stroke-width="0.8" opacity="0.2" stroke-linecap="round"/>
  <path d="M 26 17 Q 27 20 24 23" fill="none" stroke="#4f90cd" stroke-width="0.8" opacity="0.2" stroke-linecap="round"/>
</svg>
