<?xml version="1.0" encoding="UTF-8"?>
<svg width="256" height="256" viewBox="0 0 256 256" xmlns="http://www.w3.org/2000/svg">
  <!-- SerialTerminal App Icon - Bold Two-Tone Design -->

  <!-- Solid background - rounded square -->
  <rect x="8" y="8" width="240" height="240" rx="48" fill="#2d3748"/>

  <!-- Subtle inner shadow effect -->
  <rect x="16" y="16" width="224" height="224" rx="40" fill="none" stroke="#1a202c" stroke-width="4" opacity="0.5"/>

  <!-- Layer 1: Terminal window structure (white/gray) -->
  <g transform="translate(128, 128)">

    <!-- Main terminal window frame -->
    <rect x="-90" y="-80" width="180" height="160" rx="12" fill="none" stroke="#e2e1e1" stroke-width="6"/>

    <!-- Title bar -->
    <rect x="-90" y="-80" width="180" height="28" rx="12" fill="#e2e1e1" opacity="0.2"/>
    <line x1="-90" y1="-52" x2="90" y2="-52" stroke="#e2e1e1" stroke-width="2"/>

    <!-- Window control buttons -->
    <circle cx="-70" cy="-66" r="5" fill="#e2e1e1" opacity="0.6"/>
    <circle cx="-55" cy="-66" r="5" fill="#e2e1e1" opacity="0.6"/>
    <circle cx="-40" cy="-66" r="5" fill="#e2e1e1" opacity="0.6"/>

    <!-- Layer 2: Terminal content (blue accent) -->
    <!-- Command prompt symbol -->
    <path d="M -70 -25 L -55 -35 L -70 -45" fill="none" stroke="#5ba3e0" stroke-width="6" stroke-linecap="round" stroke-linejoin="round"/>
    <path d="M -68 -23 L -53 -33 L -68 -43" fill="none" stroke="#5ba3e0" stroke-width="4" stroke-linecap="round" stroke-linejoin="round" opacity="0.4"/>

    <!-- Cursor/underscore -->
    <line x1="-45" y1="-25" x2="-25" y2="-25" stroke="#5ba3e0" stroke-width="6" stroke-linecap="round"/>
    <rect x="-46" y="-28" width="22" height="8" fill="#5ba3e0" opacity="0.15"/>

    <!-- Terminal text lines (simplified representation) -->
    <line x1="-75" y1="-5" x2="30" y2="-5" stroke="#e2e1e1" stroke-width="3" stroke-linecap="round" opacity="0.5"/>
    <line x1="-75" y1="10" x2="50" y2="10" stroke="#e2e1e1" stroke-width="3" stroke-linecap="round" opacity="0.4"/>
    <line x1="-75" y1="25" x2="20" y2="25" stroke="#e2e1e1" stroke-width="3" stroke-linecap="round" opacity="0.5"/>
    <line x1="-75" y1="40" x2="60" y2="40" stroke="#e2e1e1" stroke-width="3" stroke-linecap="round" opacity="0.4"/>
    <line x1="-75" y1="55" x2="35" y2="55" stroke="#e2e1e1" stroke-width="3" stroke-linecap="round" opacity="0.5"/>

    <!-- Layer 3: Serial connection indicator -->
    <!-- Serial port connector (bottom right) -->
    <g transform="translate(55, 50)">
      <rect x="-15" y="-8" width="30" height="16" rx="8" fill="none" stroke="#5ba3e0" stroke-width="4"/>
      <rect x="-12" y="-5" width="6" height="10" rx="2" fill="#5ba3e0"/>
      <rect x="-2" y="-5" width="6" height="10" rx="2" fill="#5ba3e0"/>
      <rect x="6" y="-5" width="6" height="10" rx="2" fill="#5ba3e0"/>

      <!-- Connection glow -->
      <rect x="-15" y="-8" width="30" height="16" rx="8" fill="#5ba3e0" opacity="0.15"/>
    </g>

    <!-- Activity indicator (top right) -->
    <circle cx="70" cy="-66" r="7" fill="#5ba3e0" opacity="0.3"/>
    <circle cx="70" cy="-66" r="5" fill="#5ba3e0"/>

    <!-- Layer 4: Details and accents -->
    <!-- Corner accent dots -->
    <circle cx="-80" cy="-70" r="3" fill="#5ba3e0" opacity="0.5"/>
    <circle cx="80" cy="-70" r="3" fill="#5ba3e0" opacity="0.5"/>
    <circle cx="-80" cy="70" r="3" fill="#5ba3e0" opacity="0.5"/>
    <circle cx="30" cy="70" r="3" fill="#5ba3e0" opacity="0.5"/>

    <!-- Data transmission lines (subtle motion effect) -->
    <path d="M 40 -35 Q 50 -30 45 -25" fill="none" stroke="#5ba3e0" stroke-width="2" opacity="0.3" stroke-linecap="round"/>
    <path d="M 45 -15 Q 55 -10 50 -5" fill="none" stroke="#5ba3e0" stroke-width="2" opacity="0.3" stroke-linecap="round"/>
    <circle cx="48" cy="-30" r="1.5" fill="#5ba3e0" opacity="0.5"/>
    <circle cx="53" cy="-8" r="1.5" fill="#5ba3e0" opacity="0.5"/>
  </g>
</svg>